<?xml version="1.0"?>
<svg xmlns="http://www.w3.org/2000/svg" id="Capa_1" enable-background="new 0 0 512.01 512.01" height="512px"
     viewBox="0 0 512.01 512.01" width="512px">
    <g>
        <path d="m492.751 215.403c19.24-21.843 20.764-43.448 18.423-58.14-5.087-31.912-32.26-58.819-56.934-71.33-19.757-10.018-25.818-19.02-27.341-21.877v-25.287h-30v25.265c-1.568 2.946-7.66 11.92-27.342 21.899-1.929.978-3.874 2.066-5.822 3.217-14.6-19.07-33.984-34.374-52.328-43.676-35.649-18.075-40.752-34.436-40.799-34.598l-3.112-10.871h-11.308l-11.641.053-3.141 10.817c-.047.163-5.15 16.524-40.799 34.599-18.342 9.3-37.723 24.601-52.322 43.667-1.95-1.152-3.896-2.228-5.827-3.208-19.757-10.018-25.818-19.02-27.341-21.877v-25.287h-30v25.265c-1.568 2.945-7.66 11.92-27.342 21.899-24.674 12.511-51.847 39.418-56.934 71.33-2.342 14.692-.817 36.298 18.424 58.141v141.907l-19.26 19.256v135.438h512v-135.438l-19.254-19.254zm-74.64 67.269h-57.065v-58.193h101.706v102.833zm-237.145-58.194h29.039v58.194h-29.039zm59.039 0h32v58.194h-32zm62 0h29.041v58.194h-29.041zm81.117-111.787c13.147-6.666 22.344-13.495 28.775-19.731 6.431 6.236 15.629 13.066 28.775 19.731 17.85 9.051 37.622 28.89 40.875 49.295 1.822 11.432-1.567 22.108-10.349 32.493h-94.95c11.721-21.22 12.365-41.007 10.051-55.524-1.323-8.304-3.816-16.348-7.191-24.045 1.344-.791 2.685-1.545 4.014-2.219zm-168.951-40.46c20.362-10.324 33.439-20.794 41.834-29.887 8.395 9.093 21.472 19.563 41.833 29.887 25.652 13.007 54.098 41.724 58.835 71.445 2.836 17.79-2.912 34.856-17.088 50.801h-167.161c-14.176-15.945-19.924-33.011-17.088-50.801 4.737-29.721 33.183-58.438 58.835-71.445zm-183.708 89.755c3.253-20.406 23.025-40.245 40.875-49.295 13.147-6.666 22.344-13.495 28.775-19.731 6.431 6.236 15.629 13.066 28.775 19.731 1.33.674 2.672 1.424 4.016 2.214-3.376 7.699-5.87 15.744-7.194 24.05-2.314 14.517-1.67 34.304 10.051 55.524h-94.949c-8.782-10.385-12.171-21.061-10.349-32.493zm18.798 62.493h101.706v58.193h-57.067l-44.639 44.639zm-19.256 164.514 55.108-55.108v148.12h-55.108zm186.387 93.012v-60.978c0-10.521 4.137-20.453 11.648-27.965 7.511-7.511 17.439-11.647 27.96-11.647h.004c21.843 0 39.614 17.77 39.614 39.612v60.978zm39.614-130.589c-.003 0-.003 0-.007 0-18.531 0-35.996 7.258-49.172 20.434-13.178 13.178-20.435 30.643-20.435 49.178v60.978h-71.279v-169.334h281.784v169.333h-71.279v-60.978c0-38.384-31.228-69.611-69.612-69.611zm225.999 130.589h-55.108v-148.12l55.108 55.108z"
              data-original="#000000" class="active-path" data-old_color="#000000" fill="#fff"/>
    </g>
</svg>
