<?xml version="1.0"?>
<svg xmlns="http://www.w3.org/2000/svg" id="Capa_1" enable-background="new 0 0 512.54 512.54" height="512px"
     viewBox="0 0 512.54 512.54" width="512px">
    <g>
        <g>
            <g>
                <path d="m369.931 270.48c-4.515-4.144-9.645-8.062-15.246-11.643-2.233-1.427-3.612-3.864-3.69-6.519-.073-2.425.978-4.796 2.813-6.342 30.12-25.397 35.602-54.212 36.099-57.204 9.237-46.633-.656-87.554-29.406-121.627-23.758-28.157-55.575-46.026-76.629-57.85-2.406-1.351-4.685-2.631-6.809-3.845-12.713-7.268-28.869-7.267-41.584 0-2.124 1.214-4.402 2.494-6.808 3.845-21.053 11.824-52.871 29.693-76.63 57.849-28.75 34.073-38.644 74.992-29.407 121.626.494 2.979 5.972 31.803 36.1 57.205 1.833 1.546 2.884 3.917 2.812 6.344-.078 2.654-1.458 5.092-3.689 6.518-5.6 3.579-10.73 7.496-15.246 11.643-14.836 13.617-23.345 33.224-23.345 53.793v180.753c0 4.15 3.364 7.514 7.514 7.514h258.982c4.15 0 7.514-3.364 7.514-7.514v-180.753c-.001-20.568-8.509-40.175-23.345-53.793zm8.316 227.032h-243.954v-173.239c0-16.371 6.735-31.943 18.479-42.722 3.876-3.559 8.31-6.94 13.178-10.052 6.421-4.106 10.39-11.108 10.617-18.733.21-7.073-2.758-13.735-8.146-18.28-21.269-17.932-29.556-39.367-30.961-48.162-.018-.116-.038-.233-.061-.348-8.465-42.573.081-78.274 26.126-109.14 22.004-26.078 52.393-43.144 72.504-54.439 4.749-2.668 8.606-5.422 14.014-6.714 5.991-1.431 14.164-.272 19.558 2.813 2.156 1.233 4.467 2.531 6.91 3.903 20.109 11.293 50.499 28.361 72.502 54.438 26.044 30.867 34.59 66.567 26.125 109.14-.022.115-.043.232-.061.348-.037.252-4.108 25.523-30.96 48.162-5.388 4.544-8.357 11.206-8.147 18.279.227 7.626 4.196 14.628 10.618 18.734 4.869 3.112 9.303 6.494 13.179 10.052 11.742 10.779 18.478 26.351 18.478 42.722v173.238z"
                      data-original="#000000" class="active-path" data-old_color="#000000" fill="#fff"/>
                <path d="m164.813 379.985c4.15 0 7.514-3.364 7.514-7.514v-36.727c0-10.586 4.546-20.838 12.475-28.126l16.074-14.776c.113-.105.223-.212.331-.324 8.919-9.274 13.831-21.393 13.831-34.125 0-15.437-7.135-29.743-19.575-39.251l-4.311-3.294c-19.267-15.865-22.384-33.264-22.5-33.95-.019-.119-.04-.239-.064-.357-6.497-31.813.995-60.49 22.269-85.234 18.638-21.679 44.023-35.812 56.221-42.603 5.589-3.109 12.796-3.109 18.383 0 6.612 3.681 18.918 10.533 31.093 19.577 3.33 2.473 8.038 1.781 10.513-1.551 2.474-3.332 1.781-8.039-1.551-10.513-12.966-9.632-25.832-16.796-32.745-20.644-5.023-2.796-10.729-4.275-16.5-4.275s-11.477 1.479-16.501 4.275c-12.959 7.215-39.924 22.227-60.307 45.936-24.434 28.42-33.055 61.363-25.623 97.917.46 2.626 4.865 24.229 27.876 43.118.067.056.136.11.205.163l4.417 3.375c8.689 6.641 13.673 16.595 13.673 27.31 0 8.756-3.365 17.109-9.483 23.55l-15.896 14.612c-11.014 10.127-17.332 24.41-17.332 39.19v36.727c-.001 4.15 3.362 7.514 7.513 7.514z"
                      data-original="#000000" class="active-path" data-old_color="#000000" fill="#fff"/>
                <path d="m337.91 296.554-15.896-14.612c-6.117-6.44-9.483-14.794-9.483-23.55 0-10.715 4.984-20.669 13.675-27.311l4.415-3.375c.07-.052.137-.106.204-.162 23.013-18.888 27.418-40.492 27.878-43.118 7.499-36.888-1.343-70.086-26.281-98.676-2.729-3.128-7.475-3.45-10.602-.724-3.128 2.729-3.452 7.475-.724 10.602 21.724 24.905 29.415 53.811 22.858 85.913-.024.118-.037.189-.056.308-.123.734-3.241 18.134-22.509 33.999l-4.309 3.294c-12.442 9.507-19.577 23.814-19.577 39.251 0 12.732 4.912 24.851 13.831 34.125.108.112.217.219.331.324l16.074 14.776c7.928 7.289 12.475 17.54 12.475 28.126v132.459h-167.888v-60.78c0-4.15-3.364-7.514-7.514-7.514s-7.514 3.364-7.514 7.514v65.672c0 5.588 4.546 10.135 10.135 10.135h177.673c5.589 0 10.135-4.547 10.135-10.135v-137.351c.001-14.78-6.317-29.063-17.331-39.19z"
                      data-original="#000000" class="active-path" data-old_color="#000000" fill="#fff"/>
                <path d="m308.192 208.215v-57.56c0-4.15-3.364-7.514-7.514-7.514s-7.514 3.364-7.514 7.514v57.56c0 4.15 3.364 7.514 7.514 7.514s7.514-3.363 7.514-7.514z"
                      data-original="#000000" class="active-path" data-old_color="#000000" fill="#fff"/>
                <path d="m227.965 104.397c-.198.953-.517 2.098-.853 3.31-1.631 5.873-4.668 16.807 4.56 24.012 2.616 2.042 5.644 3.081 8.774 3.081 2.039 0 4.121-.44 6.161-1.333 1.242-.543 2.423-1.241 3.521-2.063 4.432 2.798 10.435 3.898 16.054 2.815 7.006-1.351 10.542-5.394 12.275-8.548 3.095-5.633 3.076-13.416-.053-21.352-1.521-3.862-5.886-5.755-9.746-4.235-3.861 1.521-5.757 5.885-4.235 9.746 1.533 3.89 1.595 7.274.863 8.606-.12.218-.401.73-1.95 1.028-2.656.512-5.185-.496-5.527-1.029-.008-.028-.025-.148-.008-.362.346-4.135-2.725-7.768-6.86-8.115-4.129-.344-7.769 2.725-8.115 6.859v.001.002c-.092 1.067-1.315 2.444-2.129 2.841-.758-.898-.518-2.852.894-7.932.388-1.394.788-2.836 1.086-4.275.844-4.063-1.765-8.041-5.828-8.885-4.063-.848-8.04 1.765-8.884 5.828z"
                      data-original="#000000" class="active-path" data-old_color="#000000" fill="#fff"/>
                <path d="m247.875 93.456c.668 0 1.348-.09 2.023-.279 4.844-1.351 9.405-3.815 13.189-7.124 3.124-2.731 3.443-7.479.711-10.603-2.733-3.125-7.48-3.442-10.603-.711-2.105 1.841-4.642 3.211-7.337 3.963-3.997 1.115-6.333 5.259-5.218 9.257.928 3.322 3.946 5.497 7.235 5.497z"
                      data-original="#000000" class="active-path" data-old_color="#000000" fill="#fff"/>
                <path d="m230.501 215.729c5.073 0 9.69-1.935 13.196-5.085 3.914 3.177 8.896 5.085 14.318 5.085 12.548 0 22.756-10.208 22.756-22.756v-42.318c0-4.15-3.364-7.514-7.514-7.514s-7.514 3.364-7.514 7.514v42.318c0 4.262-3.466 7.728-7.728 7.728s-7.729-3.466-7.729-7.728v-16.075c0-4.15-3.364-7.514-7.514-7.514s-7.514 3.364-7.514 7.514v19.046c0 2.623-2.134 4.757-4.757 4.757s-4.757-2.134-4.757-4.757v-32.111c0-6.879-3.064-13.014-8.406-16.831-5.559-3.971-12.982-4.937-19.856-2.58-5.856 2.007-10.391 6.557-12.443 12.483-2.064 5.96-1.328 12.349 2.021 17.529 5.611 8.679 16.005 10.243 23.656 10.051v11.46c0 10.908 8.876 19.784 19.785 19.784zm-30.821-49.455c-.809-1.25-.973-2.913-.442-4.45 1.243-3.594 6.403-4.711 9.363-2.594 1.384.988 2.115 2.58 2.115 4.603v5.595c-4.375.151-9.308-.48-11.036-3.154z"
                      data-original="#000000" class="active-path" data-old_color="#000000" fill="#fff"/>
                <path d="m303.598 329.676h-94.656c-4.15 0-7.514 3.364-7.514 7.514s3.364 7.514 7.514 7.514h94.656c4.15 0 7.514-3.364 7.514-7.514 0-4.151-3.364-7.514-7.514-7.514z"
                      data-original="#000000" class="active-path" data-old_color="#000000" fill="#fff"/>
                <path d="m288.427 296.16h-64.314c-4.15 0-7.514 3.364-7.514 7.514s3.364 7.514 7.514 7.514h64.314c4.15 0 7.514-3.364 7.514-7.514s-3.363-7.514-7.514-7.514z"
                      data-original="#000000" class="active-path" data-old_color="#000000" fill="#fff"/>
                <path d="m303.598 362.599h-94.656c-4.15 0-7.514 3.364-7.514 7.514s3.364 7.514 7.514 7.514h94.656c4.15 0 7.514-3.364 7.514-7.514s-3.364-7.514-7.514-7.514z"
                      data-original="#000000" class="active-path" data-old_color="#000000" fill="#fff"/>
                <path d="m303.598 395.523h-94.656c-4.15 0-7.514 3.364-7.514 7.514s3.364 7.514 7.514 7.514h94.656c4.15 0 7.514-3.364 7.514-7.514s-3.364-7.514-7.514-7.514z"
                      data-original="#000000" class="active-path" data-old_color="#000000" fill="#fff"/>
                <path d="m303.598 428.447h-94.656c-4.15 0-7.514 3.364-7.514 7.514s3.364 7.514 7.514 7.514h94.656c4.15 0 7.514-3.364 7.514-7.514s-3.364-7.514-7.514-7.514z"
                      data-original="#000000" class="active-path" data-old_color="#000000" fill="#fff"/>
            </g>
        </g>
    </g>
</svg>
