<?xml version="1.0"?>
<svg xmlns="http://www.w3.org/2000/svg" id="Capa_1" enable-background="new 0 0 510.606 510.606" height="512px"
     viewBox="0 0 510.606 510.606" width="512px">
    <g>
        <g>
            <path d="m290.606 92.797v-27.19h-80.606l-26.412-26.412 17.625-17.982-21.213-21.213-19.393 19.393-71.214 71.213-19.393 19.394 21.213 21.213 19.393-19.393 30 30v68.787h30v60h90v-60h29.394l55 38.824.606 51.176h-205v30h90v90h-60.874c-40.874 0-74.126 33.253-74.126 74.126v15.874h345v-312.81zm-130-30.977 25.49 25.489-30.039 27.535-24.237-24.238zm70 178.786h-30v-30h30zm30-60h-90v-38.401l50.835-46.599h39.165zm0 150h85v90h-85zm150 150h-282.681c5.903-17.425 22.415-30 41.808-30h205.874v-217.772l-85-60v-43.418l120 84v267.19z"
                  data-original="#000000" class="active-path" data-old_color="#000000" fill="#fff"/>
            <path d="m290.606 360.606h30v30h-30z" data-original="#000000" class="active-path" data-old_color="#000000"
                  fill="#fff"/>
        </g>
    </g>
</svg>
