<?xml version="1.0"?>
<svg xmlns="http://www.w3.org/2000/svg" xmlns:xlink="http://www.w3.org/1999/xlink" version="1.1" id="Capa_1" x="0px" y="0px" viewBox="0 0 512 512" style="enable-background:new 0 0 512 512;" xml:space="preserve" width="512px" height="512px"><g><g>
	<g>
		<path d="M256,0C116.513,0,0,116.14,0,256c0,139.487,116.14,256,256,256c139.487,0,256-116.14,256-256C512,116.513,395.86,0,256,0z     M96.9,415.099C11.255,329.454,7.845,197.225,86.638,107.852l51.335,51.335C136.673,166.31,136,173.603,136,181v30    c0,8.284,6.716,15,15,15h53.787l21.246,21.246C216.3,262.827,211,280.717,211,299.608V316c0,8.284,6.716,15,15,15h60    c6.435,0,11.907-4.06,14.037-9.75l104.112,104.111C314.775,504.154,182.546,500.744,96.9,415.099z M271,301h-30    c0-10.876,1.786-20.914,7.109-31.678l23.499,23.5C270.954,296.459,271,298.987,271,301z M226,204.787V181    c0-15.778,12.172-29.583,29.992-29.583C273.678,151.417,286,165.074,286,181c0,11.651-6.638,21.703-16.23,26.671    c-9.019,4.671-17.14,10.268-24.272,16.613L226,204.787z M266.785,245.572c4.972-4.259,10.582-8.05,16.782-11.262    C302.656,224.425,316,204.443,316,181c0-33.045-26.304-59.583-60.008-59.583c-32.058,0-56.797,23.796-59.704,53.658    l-24.889-24.889c12.794-35.183,45.474-58.176,84.593-58.176C308.568,92.011,346,133.008,346,181    c0,35.144-19.962,65.036-48.574,79.933c-2.006,1.034-5.483,3.02-9.267,6.014L266.785,245.572z M174.787,196H166v-8.787    L174.787,196z M425.362,404.149L309.667,288.455c0.755-0.459,1.33-0.767,1.555-0.883C350.06,267.352,376,227.174,376,181    c0-64.7-50.985-118.989-120.008-118.989c-44.681,0-86.406,23.41-107.407,65.362L107.851,86.64    C197.226,7.846,329.453,11.256,415.1,96.901C500.745,182.547,504.155,314.775,425.362,404.149z" data-original="#000000" class="active-path" data-old_color="#000000" fill="#FFFFFF"/>
	</g>
</g><g>
	<g>
		<path d="M256,361c-24.813,0-45,20.187-45,45s20.187,45,45,45s45-20.187,45-45S280.813,361,256,361z M256,421    c-8.271,0-15-6.729-15-15s6.729-15,15-15s15,6.729,15,15S264.271,421,256,421z" data-original="#000000" class="active-path" data-old_color="#000000" fill="#FFFFFF"/>
	</g>
</g></g> </svg>
