<?xml version="1.0"?>
<svg xmlns="http://www.w3.org/2000/svg" id="_x31__x2C_5" enable-background="new 0 0 36 36" height="512px" viewBox="0 0 36 36" width="512px" class=""><g><path d="m4.167 27.623c0-6.917-3.583-11.667-3.583-15s1.916-10.333 17.249-10.333 17.583 9.417 17.583 13.083c.001 17.167-31.249 24.5-31.249 12.25z" fill="#efefef" data-original="#EFEFEF"/><path d="m3.5 6c-.827 0-1.5-.673-1.5-1.5s.673-1.5 1.5-1.5 1.5.673 1.5 1.5-.673 1.5-1.5 1.5zm0-2c-.275 0-.5.225-.5.5s.225.5.5.5.5-.225.5-.5-.225-.5-.5-.5z" fill="#a4afc1" data-original="#A4AFC1"/><path d="m24.5 13.25h-15c-1.519 0-2.75-1.231-2.75-2.75 0-1.519 1.231-2.75 2.75-2.75h15c1.519 0 2.75 1.231 2.75 2.75 0 1.519-1.231 2.75-2.75 2.75z" fill="#f3f3f1" data-original="#F3F3F1" class=""/><path d="m24.5 18.75h-15c-1.519 0-2.75-1.231-2.75-2.75 0-1.519 1.231-2.75 2.75-2.75h15c1.519 0 2.75 1.231 2.75 2.75 0 1.519-1.231 2.75-2.75 2.75z" fill="#2fdf84" data-original="#2FDF84" class="active-path" style="fill:#24D292" data-old_color="#2fdf84"/><path d="m24.5 24.25h-15c-1.519 0-2.75-1.231-2.75-2.75 0-1.519 1.231-2.75 2.75-2.75h15c1.519 0 2.75 1.231 2.75 2.75 0 1.519-1.231 2.75-2.75 2.75z" fill="#f3f3f1" data-original="#F3F3F1" class=""/><path d="m29.25 28.295c0 .525-.433.955-.962.955h-10.576c-.529 0-.962-.43-.962-.955 0-.181.048-.353.144-.496l5.288-8.591c.163-.277.471-.458.817-.458s.654.181.817.458l5.288 8.591c.098.143.146.315.146.496z" fill="#2fdf84" data-original="#2FDF84" class="active-path" style="fill:#24D292" data-old_color="#2fdf84"/><path d="m19 28.295c0-.181.048-.353.144-.496l4.981-8.091-.308-.5c-.163-.277-.471-.458-.817-.458s-.654.181-.817.458l-5.289 8.591c-.096.143-.144.315-.144.496 0 .525.433.955.962.955h2.25c-.529 0-.962-.43-.962-.955z" fill="#00b871" data-original="#00B871"/><path d="m9 16c0-1.519 1.231-2.75 2.75-2.75h-2.25c-1.519 0-2.75 1.231-2.75 2.75s1.231 2.75 2.75 2.75h2.25c-1.519 0-2.75-1.231-2.75-2.75z" fill="#00b871" data-original="#00B871"/><path d="m9 10.5c0-1.519 1.231-2.75 2.75-2.75h-2.25c-1.519 0-2.75 1.231-2.75 2.75s1.231 2.75 2.75 2.75h2.25c-1.519 0-2.75-1.231-2.75-2.75z" fill="#d5dbe1" data-original="#D5DBE1" class=""/><path d="m9 21.5c0-1.519 1.231-2.75 2.75-2.75h-2.25c-1.519 0-2.75 1.231-2.75 2.75s1.231 2.75 2.75 2.75h2.25c-1.519 0-2.75-1.231-2.75-2.75z" fill="#d5dbe1" data-original="#D5DBE1" class=""/><path d="m24.5 14h-15c-1.93 0-3.5-1.57-3.5-3.5s1.57-3.5 3.5-3.5h15c1.93 0 3.5 1.57 3.5 3.5s-1.57 3.5-3.5 3.5zm-15-5.5c-1.103 0-2 .897-2 2s.897 2 2 2h15c1.103 0 2-.897 2-2s-.897-2-2-2z" data-original="#000000" class="" style="fill:#D558C8" data-old_color="#000000"/><circle cx="11" cy="10.5" r="1" data-original="#000000" class="" style="fill:#D558C8" data-old_color="#000000"/><circle cx="15" cy="10.5" r="1" data-original="#000000" class="" style="fill:#D558C8" data-old_color="#000000"/><path d="m18.25 19.5h-8.75c-1.93 0-3.5-1.57-3.5-3.5 0-.929.377-1.831 1.034-2.476.635-.647 1.537-1.024 2.466-1.024h15c1.93 0 3.5 1.57 3.5 3.5 0 .785-.252 1.522-.729 2.133l-1.182-.926c.27-.343.411-.76.411-1.207 0-1.103-.897-2-2-2h-15c-.536 0-1.035.208-1.405.585-.387.38-.595.879-.595 1.415 0 1.103.897 2 2 2h8.75z" data-original="#000000" class="" style="fill:#D558C8" data-old_color="#000000"/><circle cx="11" cy="16" r="1" data-original="#000000" class="" style="fill:#D558C8" data-old_color="#000000"/><circle cx="15" cy="16" r="1" data-original="#000000" class="" style="fill:#D558C8" data-old_color="#000000"/><path d="m15.25 25h-5.75c-1.93 0-3.5-1.57-3.5-3.5 0-.929.377-1.831 1.034-2.476.635-.647 1.537-1.024 2.466-1.024h8.15v1.5h-8.15c-.536 0-1.035.208-1.405.585-.387.38-.595.879-.595 1.415 0 1.103.897 2 2 2h5.75z" data-original="#000000" class="" style="fill:#D558C8" data-old_color="#000000"/><circle cx="11" cy="21.5" r="1" data-original="#000000" class="" style="fill:#D558C8" data-old_color="#000000"/><circle cx="15" cy="21.5" r="1" data-original="#000000" class="" style="fill:#D558C8" data-old_color="#000000"/><path d="m28.288 30h-10.576c-.944 0-1.712-.765-1.712-1.704 0-.335.094-.651.272-.916l5.271-8.565c.295-.499.855-.815 1.457-.815s1.162.316 1.463.827l5.281 8.578c.162.24.256.556.256.891 0 .939-.768 1.704-1.712 1.704zm-5.288-10.5c-.088 0-.147.048-.172.089l-5.328 8.707c0 .11.097.204.212.204h10.576c.115 0 .212-.094.212-.204 0-.033-.006-.063-.017-.078l-5.305-8.616c-.031-.054-.09-.102-.178-.102z" data-original="#000000" class="" style="fill:#D558C8" data-old_color="#000000"/><path d="m22.25 22h1.5v3.5h-1.5z" data-original="#000000" class="" style="fill:#D558C8" data-old_color="#000000"/><circle cx="23" cy="27.25" r=".75" data-original="#000000" class="" style="fill:#D558C8" data-old_color="#000000"/></g> </svg>
